<mxfile host="app.diagrams.net" agent="Mozilla/5.0 (Macintosh; Intel Mac OS X 10.15; rv:132.0) Gecko/20100101 Firefox/132.0" version="24.7.17">
  <diagram name="Page-1" id="IhLvq-sygTHg_3z8VaNK">
    <mxGraphModel dx="1183" dy="1883" grid="1" gridSize="10" guides="1" tooltips="1" connect="1" arrows="1" fold="1" page="1" pageScale="1" pageWidth="850" pageHeight="1100" math="0" shadow="0">
      <root>
        <mxCell id="0" />
        <mxCell id="1" parent="0" />
        <mxCell id="KbGU0Z5nWAapb6yZC1vz-1" value="student" style="whiteSpace=wrap;html=1;align=center;" vertex="1" parent="1">
          <mxGeometry x="100" y="220" width="100" height="40" as="geometry" />
        </mxCell>
        <mxCell id="KbGU0Z5nWAapb6yZC1vz-2" value="tutor" style="whiteSpace=wrap;html=1;align=center;" vertex="1" parent="1">
          <mxGeometry x="600" y="220" width="100" height="40" as="geometry" />
        </mxCell>
        <mxCell id="KbGU0Z5nWAapb6yZC1vz-3" value="course" style="whiteSpace=wrap;html=1;align=center;" vertex="1" parent="1">
          <mxGeometry x="360" y="220" width="100" height="40" as="geometry" />
        </mxCell>
        <mxCell id="KbGU0Z5nWAapb6yZC1vz-5" style="edgeStyle=orthogonalEdgeStyle;rounded=0;orthogonalLoop=1;jettySize=auto;html=1;entryX=0.5;entryY=0;entryDx=0;entryDy=0;" edge="1" parent="1" source="KbGU0Z5nWAapb6yZC1vz-4" target="KbGU0Z5nWAapb6yZC1vz-3">
          <mxGeometry relative="1" as="geometry" />
        </mxCell>
        <mxCell id="KbGU0Z5nWAapb6yZC1vz-7" style="edgeStyle=orthogonalEdgeStyle;rounded=0;orthogonalLoop=1;jettySize=auto;html=1;entryX=0.5;entryY=0;entryDx=0;entryDy=0;" edge="1" parent="1" source="KbGU0Z5nWAapb6yZC1vz-8" target="KbGU0Z5nWAapb6yZC1vz-2">
          <mxGeometry relative="1" as="geometry" />
        </mxCell>
        <mxCell id="KbGU0Z5nWAapb6yZC1vz-11" style="edgeStyle=orthogonalEdgeStyle;rounded=0;orthogonalLoop=1;jettySize=auto;html=1;entryX=0.5;entryY=0;entryDx=0;entryDy=0;" edge="1" parent="1" source="KbGU0Z5nWAapb6yZC1vz-4" target="KbGU0Z5nWAapb6yZC1vz-10">
          <mxGeometry relative="1" as="geometry" />
        </mxCell>
        <mxCell id="KbGU0Z5nWAapb6yZC1vz-26" style="edgeStyle=orthogonalEdgeStyle;rounded=0;orthogonalLoop=1;jettySize=auto;html=1;endArrow=none;endFill=0;" edge="1" parent="1" source="KbGU0Z5nWAapb6yZC1vz-4" target="KbGU0Z5nWAapb6yZC1vz-20">
          <mxGeometry relative="1" as="geometry">
            <Array as="points">
              <mxPoint x="400" y="30" />
              <mxPoint x="350" y="30" />
            </Array>
          </mxGeometry>
        </mxCell>
        <mxCell id="KbGU0Z5nWAapb6yZC1vz-27" style="edgeStyle=orthogonalEdgeStyle;rounded=0;orthogonalLoop=1;jettySize=auto;html=1;entryX=0.5;entryY=1;entryDx=0;entryDy=0;endArrow=none;endFill=0;" edge="1" parent="1" source="KbGU0Z5nWAapb6yZC1vz-4" target="KbGU0Z5nWAapb6yZC1vz-21">
          <mxGeometry relative="1" as="geometry">
            <Array as="points">
              <mxPoint x="420" y="30" />
              <mxPoint x="470" y="30" />
            </Array>
          </mxGeometry>
        </mxCell>
        <mxCell id="KbGU0Z5nWAapb6yZC1vz-4" value="institute" style="whiteSpace=wrap;html=1;align=center;strokeColor=default;" vertex="1" parent="1">
          <mxGeometry x="360" y="60" width="100" height="40" as="geometry" />
        </mxCell>
        <mxCell id="KbGU0Z5nWAapb6yZC1vz-9" value="" style="edgeStyle=orthogonalEdgeStyle;rounded=0;orthogonalLoop=1;jettySize=auto;html=1;entryX=0.5;entryY=0;entryDx=0;entryDy=0;" edge="1" parent="1" source="KbGU0Z5nWAapb6yZC1vz-4" target="KbGU0Z5nWAapb6yZC1vz-8">
          <mxGeometry relative="1" as="geometry">
            <mxPoint x="460" y="80" as="sourcePoint" />
            <mxPoint x="650" y="220" as="targetPoint" />
          </mxGeometry>
        </mxCell>
        <mxCell id="KbGU0Z5nWAapb6yZC1vz-8" value="pays" style="shape=rhombus;perimeter=rhombusPerimeter;whiteSpace=wrap;html=1;align=center;" vertex="1" parent="1">
          <mxGeometry x="590" y="100" width="120" height="60" as="geometry" />
        </mxCell>
        <mxCell id="KbGU0Z5nWAapb6yZC1vz-12" style="edgeStyle=orthogonalEdgeStyle;rounded=0;orthogonalLoop=1;jettySize=auto;html=1;entryX=0.5;entryY=0;entryDx=0;entryDy=0;" edge="1" parent="1" target="KbGU0Z5nWAapb6yZC1vz-1">
          <mxGeometry relative="1" as="geometry">
            <mxPoint x="150" y="160" as="sourcePoint" />
          </mxGeometry>
        </mxCell>
        <mxCell id="KbGU0Z5nWAapb6yZC1vz-10" value="is paid by" style="shape=rhombus;perimeter=rhombusPerimeter;whiteSpace=wrap;html=1;align=center;" vertex="1" parent="1">
          <mxGeometry x="90" y="100" width="120" height="60" as="geometry" />
        </mxCell>
        <mxCell id="KbGU0Z5nWAapb6yZC1vz-17" style="edgeStyle=orthogonalEdgeStyle;rounded=0;orthogonalLoop=1;jettySize=auto;html=1;entryX=0;entryY=0.5;entryDx=0;entryDy=0;" edge="1" parent="1" source="KbGU0Z5nWAapb6yZC1vz-13" target="KbGU0Z5nWAapb6yZC1vz-3">
          <mxGeometry relative="1" as="geometry" />
        </mxCell>
        <mxCell id="KbGU0Z5nWAapb6yZC1vz-13" value="learns" style="shape=rhombus;perimeter=rhombusPerimeter;whiteSpace=wrap;html=1;align=center;" vertex="1" parent="1">
          <mxGeometry x="240" y="210" width="80" height="60" as="geometry" />
        </mxCell>
        <mxCell id="KbGU0Z5nWAapb6yZC1vz-15" style="edgeStyle=orthogonalEdgeStyle;rounded=0;orthogonalLoop=1;jettySize=auto;html=1;entryX=1;entryY=0.5;entryDx=0;entryDy=0;" edge="1" parent="1" source="KbGU0Z5nWAapb6yZC1vz-14" target="KbGU0Z5nWAapb6yZC1vz-3">
          <mxGeometry relative="1" as="geometry" />
        </mxCell>
        <mxCell id="KbGU0Z5nWAapb6yZC1vz-16" style="edgeStyle=orthogonalEdgeStyle;rounded=0;orthogonalLoop=1;jettySize=auto;html=1;" edge="1" parent="1" source="KbGU0Z5nWAapb6yZC1vz-14" target="KbGU0Z5nWAapb6yZC1vz-2">
          <mxGeometry relative="1" as="geometry" />
        </mxCell>
        <mxCell id="KbGU0Z5nWAapb6yZC1vz-14" value="teaches" style="shape=rhombus;perimeter=rhombusPerimeter;whiteSpace=wrap;html=1;align=center;" vertex="1" parent="1">
          <mxGeometry x="490" y="210" width="80" height="60" as="geometry" />
        </mxCell>
        <mxCell id="KbGU0Z5nWAapb6yZC1vz-18" style="edgeStyle=orthogonalEdgeStyle;rounded=0;orthogonalLoop=1;jettySize=auto;html=1;entryX=0.989;entryY=0.618;entryDx=0;entryDy=0;entryPerimeter=0;" edge="1" parent="1" source="KbGU0Z5nWAapb6yZC1vz-13" target="KbGU0Z5nWAapb6yZC1vz-1">
          <mxGeometry relative="1" as="geometry">
            <Array as="points">
              <mxPoint x="199" y="240" />
            </Array>
          </mxGeometry>
        </mxCell>
        <mxCell id="KbGU0Z5nWAapb6yZC1vz-19" value="address" style="ellipse;whiteSpace=wrap;html=1;align=center;" vertex="1" parent="1">
          <mxGeometry x="190" y="-40" width="100" height="40" as="geometry" />
        </mxCell>
        <mxCell id="KbGU0Z5nWAapb6yZC1vz-20" value="name" style="ellipse;whiteSpace=wrap;html=1;align=center;" vertex="1" parent="1">
          <mxGeometry x="300" y="-40" width="100" height="40" as="geometry" />
        </mxCell>
        <mxCell id="KbGU0Z5nWAapb6yZC1vz-21" value="employee count" style="ellipse;whiteSpace=wrap;html=1;align=center;" vertex="1" parent="1">
          <mxGeometry x="420" y="-40" width="100" height="40" as="geometry" />
        </mxCell>
        <mxCell id="KbGU0Z5nWAapb6yZC1vz-30" style="edgeStyle=orthogonalEdgeStyle;rounded=0;orthogonalLoop=1;jettySize=auto;html=1;entryX=0.75;entryY=0;entryDx=0;entryDy=0;curved=0;strokeColor=default;endArrow=none;endFill=0;" edge="1" parent="1" source="KbGU0Z5nWAapb6yZC1vz-22" target="KbGU0Z5nWAapb6yZC1vz-4">
          <mxGeometry relative="1" as="geometry">
            <Array as="points">
              <mxPoint x="580" y="40" />
              <mxPoint x="440" y="40" />
              <mxPoint x="440" y="60" />
            </Array>
          </mxGeometry>
        </mxCell>
        <mxCell id="KbGU0Z5nWAapb6yZC1vz-22" value="gov id" style="ellipse;whiteSpace=wrap;html=1;align=center;" vertex="1" parent="1">
          <mxGeometry x="530" y="-40" width="100" height="40" as="geometry" />
        </mxCell>
        <mxCell id="KbGU0Z5nWAapb6yZC1vz-28" style="edgeStyle=orthogonalEdgeStyle;rounded=0;orthogonalLoop=1;jettySize=auto;html=1;exitX=0.25;exitY=0;exitDx=0;exitDy=0;endArrow=none;endFill=0;" edge="1" parent="1" source="KbGU0Z5nWAapb6yZC1vz-4">
          <mxGeometry relative="1" as="geometry">
            <mxPoint x="289.95" y="60" as="sourcePoint" />
            <mxPoint x="239.95" as="targetPoint" />
            <Array as="points">
              <mxPoint x="380" y="60" />
              <mxPoint x="380" y="40" />
              <mxPoint x="240" y="40" />
            </Array>
          </mxGeometry>
        </mxCell>
        <mxCell id="KbGU0Z5nWAapb6yZC1vz-37" style="edgeStyle=orthogonalEdgeStyle;rounded=0;orthogonalLoop=1;jettySize=auto;html=1;entryX=0.75;entryY=1;entryDx=0;entryDy=0;" edge="1" parent="1" source="KbGU0Z5nWAapb6yZC1vz-33" target="KbGU0Z5nWAapb6yZC1vz-3">
          <mxGeometry relative="1" as="geometry">
            <Array as="points">
              <mxPoint x="440" y="300" />
              <mxPoint x="440" y="260" />
            </Array>
          </mxGeometry>
        </mxCell>
        <mxCell id="KbGU0Z5nWAapb6yZC1vz-33" value="name" style="ellipse;whiteSpace=wrap;html=1;align=center;" vertex="1" parent="1">
          <mxGeometry x="460" y="280" width="100" height="40" as="geometry" />
        </mxCell>
        <mxCell id="KbGU0Z5nWAapb6yZC1vz-38" style="edgeStyle=orthogonalEdgeStyle;rounded=0;orthogonalLoop=1;jettySize=auto;html=1;" edge="1" parent="1" source="KbGU0Z5nWAapb6yZC1vz-34" target="KbGU0Z5nWAapb6yZC1vz-3">
          <mxGeometry relative="1" as="geometry">
            <Array as="points">
              <mxPoint x="430" y="350" />
            </Array>
          </mxGeometry>
        </mxCell>
        <mxCell id="KbGU0Z5nWAapb6yZC1vz-34" value="cost" style="ellipse;whiteSpace=wrap;html=1;align=center;" vertex="1" parent="1">
          <mxGeometry x="460" y="330" width="100" height="40" as="geometry" />
        </mxCell>
        <mxCell id="KbGU0Z5nWAapb6yZC1vz-39" style="edgeStyle=orthogonalEdgeStyle;rounded=0;orthogonalLoop=1;jettySize=auto;html=1;entryX=0.5;entryY=1;entryDx=0;entryDy=0;" edge="1" parent="1" source="KbGU0Z5nWAapb6yZC1vz-35" target="KbGU0Z5nWAapb6yZC1vz-3">
          <mxGeometry relative="1" as="geometry">
            <Array as="points">
              <mxPoint x="410" y="400" />
            </Array>
          </mxGeometry>
        </mxCell>
        <mxCell id="KbGU0Z5nWAapb6yZC1vz-35" value="length" style="ellipse;whiteSpace=wrap;html=1;align=center;" vertex="1" parent="1">
          <mxGeometry x="460" y="380" width="100" height="40" as="geometry" />
        </mxCell>
        <mxCell id="KbGU0Z5nWAapb6yZC1vz-40" style="edgeStyle=orthogonalEdgeStyle;rounded=0;orthogonalLoop=1;jettySize=auto;html=1;entryX=0.25;entryY=1;entryDx=0;entryDy=0;" edge="1" parent="1" source="KbGU0Z5nWAapb6yZC1vz-36" target="KbGU0Z5nWAapb6yZC1vz-3">
          <mxGeometry relative="1" as="geometry">
            <Array as="points">
              <mxPoint x="385" y="450" />
            </Array>
          </mxGeometry>
        </mxCell>
        <mxCell id="KbGU0Z5nWAapb6yZC1vz-36" value="level" style="ellipse;whiteSpace=wrap;html=1;align=center;" vertex="1" parent="1">
          <mxGeometry x="460" y="430" width="100" height="40" as="geometry" />
        </mxCell>
        <mxCell id="KbGU0Z5nWAapb6yZC1vz-46" style="edgeStyle=orthogonalEdgeStyle;rounded=0;orthogonalLoop=1;jettySize=auto;html=1;entryX=0.75;entryY=1;entryDx=0;entryDy=0;" edge="1" parent="1" source="KbGU0Z5nWAapb6yZC1vz-41" target="KbGU0Z5nWAapb6yZC1vz-1">
          <mxGeometry relative="1" as="geometry" />
        </mxCell>
        <mxCell id="KbGU0Z5nWAapb6yZC1vz-41" value="name" style="ellipse;whiteSpace=wrap;html=1;align=center;" vertex="1" parent="1">
          <mxGeometry x="210" y="280" width="100" height="40" as="geometry" />
        </mxCell>
        <mxCell id="KbGU0Z5nWAapb6yZC1vz-47" style="edgeStyle=orthogonalEdgeStyle;rounded=0;orthogonalLoop=1;jettySize=auto;html=1;entryX=0.5;entryY=1;entryDx=0;entryDy=0;" edge="1" parent="1" source="KbGU0Z5nWAapb6yZC1vz-42" target="KbGU0Z5nWAapb6yZC1vz-1">
          <mxGeometry relative="1" as="geometry" />
        </mxCell>
        <mxCell id="KbGU0Z5nWAapb6yZC1vz-42" value="gov ID" style="ellipse;whiteSpace=wrap;html=1;align=center;" vertex="1" parent="1">
          <mxGeometry x="210" y="330" width="100" height="40" as="geometry" />
        </mxCell>
        <mxCell id="KbGU0Z5nWAapb6yZC1vz-48" style="edgeStyle=orthogonalEdgeStyle;rounded=0;orthogonalLoop=1;jettySize=auto;html=1;entryX=0.25;entryY=1;entryDx=0;entryDy=0;" edge="1" parent="1" source="KbGU0Z5nWAapb6yZC1vz-43" target="KbGU0Z5nWAapb6yZC1vz-1">
          <mxGeometry relative="1" as="geometry" />
        </mxCell>
        <mxCell id="KbGU0Z5nWAapb6yZC1vz-43" value="age" style="ellipse;whiteSpace=wrap;html=1;align=center;" vertex="1" parent="1">
          <mxGeometry x="210" y="380" width="100" height="40" as="geometry" />
        </mxCell>
        <mxCell id="KbGU0Z5nWAapb6yZC1vz-44" value="profession" style="ellipse;whiteSpace=wrap;html=1;align=center;" vertex="1" parent="1">
          <mxGeometry x="210" y="430" width="100" height="40" as="geometry" />
        </mxCell>
        <mxCell id="KbGU0Z5nWAapb6yZC1vz-49" style="edgeStyle=orthogonalEdgeStyle;rounded=0;orthogonalLoop=1;jettySize=auto;html=1;entryX=0.094;entryY=0.925;entryDx=0;entryDy=0;entryPerimeter=0;" edge="1" parent="1" source="KbGU0Z5nWAapb6yZC1vz-44" target="KbGU0Z5nWAapb6yZC1vz-1">
          <mxGeometry relative="1" as="geometry" />
        </mxCell>
        <mxCell id="KbGU0Z5nWAapb6yZC1vz-50" value="name" style="ellipse;whiteSpace=wrap;html=1;align=center;" vertex="1" parent="1">
          <mxGeometry x="750" y="270" width="100" height="40" as="geometry" />
        </mxCell>
        <mxCell id="KbGU0Z5nWAapb6yZC1vz-56" style="edgeStyle=orthogonalEdgeStyle;rounded=0;orthogonalLoop=1;jettySize=auto;html=1;entryX=0.75;entryY=1;entryDx=0;entryDy=0;" edge="1" parent="1" source="KbGU0Z5nWAapb6yZC1vz-51" target="KbGU0Z5nWAapb6yZC1vz-2">
          <mxGeometry relative="1" as="geometry" />
        </mxCell>
        <mxCell id="KbGU0Z5nWAapb6yZC1vz-51" value="salary" style="ellipse;whiteSpace=wrap;html=1;align=center;" vertex="1" parent="1">
          <mxGeometry x="750" y="320" width="100" height="40" as="geometry" />
        </mxCell>
        <mxCell id="KbGU0Z5nWAapb6yZC1vz-57" style="edgeStyle=orthogonalEdgeStyle;rounded=0;orthogonalLoop=1;jettySize=auto;html=1;" edge="1" parent="1" source="KbGU0Z5nWAapb6yZC1vz-52" target="KbGU0Z5nWAapb6yZC1vz-2">
          <mxGeometry relative="1" as="geometry" />
        </mxCell>
        <mxCell id="KbGU0Z5nWAapb6yZC1vz-52" value="profession" style="ellipse;whiteSpace=wrap;html=1;align=center;" vertex="1" parent="1">
          <mxGeometry x="750" y="370" width="100" height="40" as="geometry" />
        </mxCell>
        <mxCell id="KbGU0Z5nWAapb6yZC1vz-53" value="gov ID" style="ellipse;whiteSpace=wrap;html=1;align=center;" vertex="1" parent="1">
          <mxGeometry x="750" y="420" width="100" height="40" as="geometry" />
        </mxCell>
        <mxCell id="KbGU0Z5nWAapb6yZC1vz-54" value="courses tutores" style="ellipse;whiteSpace=wrap;html=1;align=center;" vertex="1" parent="1">
          <mxGeometry x="750" y="470" width="100" height="40" as="geometry" />
        </mxCell>
        <mxCell id="KbGU0Z5nWAapb6yZC1vz-55" style="edgeStyle=orthogonalEdgeStyle;rounded=0;orthogonalLoop=1;jettySize=auto;html=1;entryX=0.894;entryY=1.115;entryDx=0;entryDy=0;entryPerimeter=0;" edge="1" parent="1" source="KbGU0Z5nWAapb6yZC1vz-50" target="KbGU0Z5nWAapb6yZC1vz-2">
          <mxGeometry relative="1" as="geometry" />
        </mxCell>
        <mxCell id="KbGU0Z5nWAapb6yZC1vz-58" style="edgeStyle=orthogonalEdgeStyle;rounded=0;orthogonalLoop=1;jettySize=auto;html=1;entryX=0.341;entryY=0.996;entryDx=0;entryDy=0;entryPerimeter=0;" edge="1" parent="1" source="KbGU0Z5nWAapb6yZC1vz-53" target="KbGU0Z5nWAapb6yZC1vz-2">
          <mxGeometry relative="1" as="geometry" />
        </mxCell>
        <mxCell id="KbGU0Z5nWAapb6yZC1vz-59" style="edgeStyle=orthogonalEdgeStyle;rounded=0;orthogonalLoop=1;jettySize=auto;html=1;entryX=0.132;entryY=1.044;entryDx=0;entryDy=0;entryPerimeter=0;" edge="1" parent="1" source="KbGU0Z5nWAapb6yZC1vz-54" target="KbGU0Z5nWAapb6yZC1vz-2">
          <mxGeometry relative="1" as="geometry" />
        </mxCell>
        <mxCell id="KbGU0Z5nWAapb6yZC1vz-61" style="edgeStyle=orthogonalEdgeStyle;rounded=0;orthogonalLoop=1;jettySize=auto;html=1;entryX=0;entryY=1;entryDx=0;entryDy=0;" edge="1" parent="1" source="KbGU0Z5nWAapb6yZC1vz-60" target="KbGU0Z5nWAapb6yZC1vz-1">
          <mxGeometry relative="1" as="geometry" />
        </mxCell>
        <mxCell id="KbGU0Z5nWAapb6yZC1vz-60" value="courses taken" style="ellipse;whiteSpace=wrap;html=1;align=center;" vertex="1" parent="1">
          <mxGeometry x="210" y="480" width="100" height="40" as="geometry" />
        </mxCell>
      </root>
    </mxGraphModel>
  </diagram>
</mxfile>
